<?xml version="1.0" encoding="UTF-8"?>
<svg id="Layer_1" data-name="Layer 1" xmlns="http://www.w3.org/2000/svg" viewBox="0 0 122.48 124.25">
  <defs>
    <style>
      .cls-1 {
        fill: none;
        stroke: #000;
        stroke-width: .5px;
      }
    </style>
  </defs>
  <g>
    <path class="cls-1" d="M64.82,77.68v-23.49h53.91v48.13c-10.32,7.03-19.45,11.82-27.38,14.36s-17.34,3.81-28.22,3.81c-13.4,0-24.32-2.28-32.77-6.85-8.45-4.57-14.99-11.37-19.64-20.41-4.65-9.04-6.97-19.41-6.97-31.11,0-12.32,2.54-23.04,7.62-32.15,5.08-9.11,12.53-16.03,22.33-20.75,7.65-3.65,17.94-5.47,30.88-5.47s21.81,1.13,27.99,3.39c6.19,2.26,11.32,5.76,15.4,10.51,4.08,4.75,7.15,10.77,9.2,18.06l-33.65,6.01c-1.39-4.26-3.73-7.52-7.05-9.78-3.31-2.26-7.54-3.39-12.67-3.39-7.65,0-13.75,2.66-18.29,7.97-4.54,5.31-6.82,13.72-6.82,25.22,0,12.22,2.3,20.95,6.89,26.18,4.59,5.24,11,7.86,19.21,7.86,3.9,0,7.62-.56,11.17-1.69,3.54-1.13,7.6-3.05,12.17-5.78v-10.63h-23.33Z"/>
    <path class="cls-1" d="M63.12,121.5c-13.51,0-24.69-2.35-33.24-6.97-8.59-4.65-15.33-11.65-20.05-20.83-4.7-9.14-7.08-19.76-7.08-31.57,0-12.43,2.61-23.42,7.75-32.64,5.16-9.25,12.82-16.38,22.77-21.17,7.75-3.69,18.29-5.57,31.31-5.57s22.07,1.16,28.34,3.45c6.32,2.31,11.64,5.94,15.82,10.8,4.16,4.84,7.32,11.04,9.41,18.44l.3,1.06-35.6,6.35-.27-.83c-1.31-4.02-3.55-7.14-6.66-9.26-3.13-2.13-7.2-3.21-12.1-3.21-7.31,0-13.21,2.56-17.53,7.62-4.36,5.1-6.58,13.37-6.58,24.57,0,11.91,2.24,20.5,6.64,25.52,4.37,4.99,10.58,7.51,18.46,7.51,3.78,0,7.44-.55,10.86-1.65,3.33-1.06,7.18-2.87,11.47-5.39v-9.06h-23.33v-25.49h55.91v49.66l-.44.3c-10.35,7.05-19.65,11.93-27.64,14.49-7.99,2.56-17.59,3.86-28.53,3.86ZM64.59,4.75c-12.73,0-22.97,1.81-30.45,5.37-9.57,4.61-16.93,11.45-21.89,20.34-4.97,8.92-7.5,19.58-7.5,31.66s2.31,21.81,6.86,30.65c4.53,8.81,11,15.54,19.22,19.99,8.25,4.47,19.12,6.73,32.29,6.73,10.73,0,20.12-1.27,27.92-3.76,7.69-2.47,16.67-7.15,26.68-13.94v-46.6h-51.91v21.49h23.33v12.2l-.49.29c-4.62,2.75-8.78,4.72-12.38,5.87-3.62,1.16-7.48,1.74-11.47,1.74-8.48,0-15.2-2.76-19.97-8.2-4.74-5.4-7.14-14.43-7.14-26.84,0-11.69,2.37-20.4,7.06-25.87,4.72-5.52,11.13-8.32,19.05-8.32,5.31,0,9.77,1.2,13.23,3.56,3.27,2.23,5.67,5.41,7.15,9.47l31.72-5.66c-2-6.65-4.92-12.23-8.69-16.62-3.95-4.59-8.99-8.03-14.99-10.22-6.05-2.21-15.35-3.33-27.65-3.33Z"/>
  </g>
  <path class="cls-1" d="M63.12,124c-13.93,0-25.51-2.45-34.43-7.28-9.04-4.89-16.13-12.25-21.08-21.89C2.73,85.34.25,74.34.25,62.12c0-12.87,2.71-24.26,8.07-33.86,5.42-9.71,13.45-17.18,23.87-22.2C40.29,2.2,51.18.25,64.59.25s22.56,1.18,29.19,3.6c6.73,2.46,12.4,6.33,16.86,11.52,4.4,5.12,7.73,11.64,9.92,19.39l1.05,3.72-40.45,7.22-.94-2.9c-1.15-3.54-3.01-6.14-5.69-7.97-2.7-1.84-6.3-2.78-10.7-2.78-6.64,0-11.75,2.21-15.63,6.75-3.96,4.64-5.98,12.36-5.98,22.95,0,11.29,2.03,19.32,6.02,23.88,3.93,4.48,9.36,6.66,16.58,6.66,3.52,0,6.92-.51,10.1-1.53,2.83-.9,6.1-2.4,9.73-4.46v-5.11h-23.33v-30.49h60.91v53.48l-1.53,1.04c-10.55,7.19-20.06,12.17-28.28,14.8-8.24,2.64-18.1,3.98-29.29,3.98ZM64.59,7.25c-12.35,0-22.24,1.73-29.38,5.13-9.08,4.38-16.08,10.87-20.78,19.3-4.76,8.54-7.18,18.79-7.18,30.45s2.21,21.02,6.58,29.51c4.3,8.35,10.42,14.72,18.19,18.93,7.88,4.27,18.35,6.43,31.1,6.43,10.47,0,19.61-1.23,27.16-3.65,7.19-2.3,15.57-6.64,24.95-12.89v-42.77h-46.91v16.49h23.33v16.12l-1.71,1.02c-4.78,2.85-9.12,4.9-12.9,6.1-3.87,1.23-7.98,1.86-12.23,1.86-9.23,0-16.58-3.04-21.84-9.05-5.22-5.95-7.76-15.27-7.76-28.49,0-12.48,2.5-21.47,7.66-27.5,5.22-6.1,12.27-9.2,20.95-9.2,5.83,0,10.75,1.34,14.64,4,3.16,2.16,5.6,5.08,7.28,8.72l26.9-4.8c-1.83-5.14-4.29-9.51-7.31-13.03-3.67-4.27-8.36-7.46-13.95-9.51-5.77-2.11-14.79-3.18-26.79-3.18Z"/>
  <path class="cls-1" d="M63.12,121.5c-13.51,0-24.69-2.35-33.24-6.97-8.59-4.65-15.33-11.65-20.05-20.83-4.7-9.14-7.08-19.76-7.08-31.57,0-12.43,2.61-23.42,7.75-32.64,5.16-9.25,12.82-16.38,22.77-21.17,7.75-3.69,18.29-5.57,31.31-5.57s22.07,1.16,28.34,3.45c6.32,2.31,11.64,5.94,15.82,10.8,4.16,4.84,7.32,11.04,9.41,18.44l.3,1.06-35.6,6.35-.27-.83c-1.31-4.02-3.55-7.14-6.66-9.26-3.13-2.13-7.2-3.21-12.1-3.21-7.31,0-13.21,2.56-17.53,7.62-4.36,5.1-6.58,13.37-6.58,24.57,0,11.91,2.24,20.5,6.64,25.52,4.37,4.99,10.58,7.51,18.46,7.51,3.78,0,7.44-.55,10.86-1.65,3.33-1.06,7.18-2.87,11.47-5.39v-9.06h-23.33v-25.49h55.91v49.66l-.44.3c-10.35,7.05-19.65,11.93-27.64,14.49-7.99,2.56-17.59,3.86-28.53,3.86ZM64.59,4.75c-12.73,0-22.97,1.81-30.45,5.37-9.57,4.61-16.93,11.45-21.89,20.34-4.97,8.92-7.5,19.58-7.5,31.66s2.31,21.81,6.86,30.65c4.53,8.81,11,15.54,19.22,19.99,8.25,4.47,19.12,6.73,32.29,6.73,10.73,0,20.12-1.27,27.92-3.76,7.69-2.47,16.67-7.15,26.68-13.94v-46.6h-51.91v21.49h23.33v12.2l-.49.29c-4.62,2.75-8.78,4.72-12.38,5.87-3.62,1.16-7.48,1.74-11.47,1.74-8.48,0-15.2-2.76-19.97-8.2-4.74-5.4-7.14-14.43-7.14-26.84,0-11.69,2.37-20.4,7.06-25.87,4.72-5.52,11.13-8.32,19.05-8.32,5.31,0,9.77,1.2,13.23,3.56,3.27,2.23,5.67,5.41,7.15,9.47l31.72-5.66c-2-6.65-4.92-12.23-8.69-16.62-3.95-4.59-8.99-8.03-14.99-10.22-6.05-2.21-15.35-3.33-27.65-3.33Z"/>
</svg>