<?xml version="1.0" encoding="UTF-8"?>
<svg id="Layer_1" data-name="Layer 1" xmlns="http://www.w3.org/2000/svg" viewBox="0 0 750.8 124.25">
  <defs>
    <style>
      .cls-1 {
        fill: none;
        stroke: #000;
        stroke-width: .5px;
      }
    </style>
  </defs>
  <g>
    <g>
      <path class="cls-1" d="M64.82,77.68v-23.49h53.91v48.13c-10.32,7.03-19.45,11.82-27.38,14.36-7.93,2.54-17.34,3.81-28.22,3.81-13.4,0-24.32-2.28-32.77-6.85-8.45-4.57-14.99-11.37-19.64-20.41-4.65-9.04-6.97-19.41-6.97-31.11,0-12.32,2.54-23.04,7.62-32.15,5.08-9.11,12.53-16.03,22.33-20.75,7.65-3.65,17.94-5.47,30.88-5.47s21.81,1.13,27.99,3.39c6.19,2.26,11.32,5.76,15.4,10.51,4.08,4.75,7.15,10.77,9.2,18.06l-33.65,6.01c-1.39-4.26-3.73-7.52-7.05-9.78-3.31-2.26-7.54-3.39-12.67-3.39-7.65,0-13.75,2.66-18.29,7.97-4.54,5.31-6.82,13.72-6.82,25.22,0,12.22,2.3,20.95,6.89,26.18,4.59,5.24,11,7.86,19.21,7.86,3.9,0,7.62-.56,11.17-1.69,3.54-1.13,7.6-3.05,12.17-5.78v-10.63h-23.33Z"/>
      <path class="cls-1" d="M63.12,121.5c-13.51,0-24.69-2.35-33.24-6.97-8.59-4.65-15.33-11.65-20.05-20.83-4.7-9.14-7.08-19.76-7.08-31.57,0-12.43,2.61-23.42,7.75-32.64,5.16-9.25,12.82-16.38,22.77-21.17,7.75-3.69,18.29-5.57,31.31-5.57s22.07,1.16,28.34,3.45c6.32,2.31,11.64,5.94,15.82,10.8,4.16,4.84,7.32,11.04,9.41,18.44l.3,1.06-35.6,6.35-.27-.83c-1.31-4.02-3.55-7.14-6.66-9.26-3.13-2.13-7.2-3.21-12.1-3.21-7.31,0-13.21,2.56-17.53,7.62-4.36,5.1-6.58,13.37-6.58,24.57,0,11.91,2.24,20.5,6.64,25.52,4.37,4.99,10.58,7.51,18.46,7.51,3.78,0,7.44-.55,10.86-1.65,3.33-1.06,7.18-2.87,11.47-5.39v-9.06h-23.33v-25.49h55.91v49.66l-.44.3c-10.35,7.05-19.65,11.93-27.64,14.49-7.99,2.56-17.59,3.86-28.53,3.86ZM64.59,4.75c-12.73,0-22.97,1.81-30.45,5.37-9.57,4.61-16.93,11.45-21.89,20.34-4.97,8.92-7.5,19.58-7.5,31.66s2.31,21.81,6.86,30.65c4.53,8.81,11,15.54,19.22,19.99,8.25,4.47,19.12,6.73,32.29,6.73,10.73,0,20.12-1.27,27.92-3.76,7.69-2.47,16.67-7.15,26.68-13.94v-46.6h-51.91v21.49h23.33v12.2l-.49.29c-4.62,2.75-8.78,4.72-12.38,5.87-3.62,1.16-7.48,1.74-11.47,1.74-8.48,0-15.2-2.76-19.97-8.2-4.74-5.4-7.14-14.43-7.14-26.84,0-11.69,2.37-20.4,7.06-25.87,4.72-5.52,11.13-8.32,19.05-8.32,5.31,0,9.77,1.2,13.23,3.56,3.27,2.23,5.67,5.41,7.15,9.47l31.72-5.66c-2-6.65-4.92-12.23-8.69-16.62-3.95-4.59-8.99-8.03-14.99-10.22-6.05-2.21-15.35-3.33-27.65-3.33Z"/>
    </g>
    <g>
      <path class="cls-1" d="M170.71,5.68h107.81v24.1h-47.59v17.94h43.28v23.03h-43.28v22.26h49.06v25.57h-81.86v-20.25h-33.5l-7.47,20.25h-35.12L170.71,5.68ZM190.35,28.55l-16.24,44.05h24.02V28.55h-7.78Z"/>
      <path class="cls-1" d="M280.99,119.57h-83.86v-20.25h-31.81l-7.47,20.25h-37.33l.6-1.4L170.05,4.68h109.47v26.1h-47.59v15.94h43.28v25.03h-43.28v20.26h49.05v27.57ZM199.12,117.57h79.86v-23.57h-49.05v-24.26h43.28v-21.03h-43.28v-19.94h47.59V6.68h-106.16l-47.81,110.9h32.9l7.47-20.25h35.2v20.25ZM199.12,73.6h-26.45l16.98-46.05h9.48v46.05ZM175.54,71.6h21.58V29.55h-6.08l-15.5,42.05Z"/>
    </g>
    <g>
      <path class="cls-1" d="M291.08,81.22l33.19-2.08c.72,5.39,2.18,9.5,4.39,12.32,3.59,4.57,8.73,6.85,15.4,6.85,4.98,0,8.82-1.17,11.51-3.5,2.7-2.34,4.04-5.04,4.04-8.12s-1.28-5.54-3.85-7.86c-2.57-2.31-8.52-4.49-17.87-6.55-15.3-3.44-26.21-8.01-32.73-13.71-6.57-5.7-9.86-12.96-9.86-21.79,0-5.8,1.68-11.28,5.04-16.44,3.36-5.16,8.42-9.21,15.17-12.17,6.75-2.95,16.01-4.43,27.76-4.43,14.43,0,25.43,2.68,33,8.05,7.57,5.37,12.08,13.9,13.52,25.61l-32.88,1.93c-.87-5.08-2.71-8.78-5.51-11.09-2.8-2.31-6.66-3.47-11.59-3.47-4.06,0-7.11.86-9.16,2.58-2.05,1.72-3.08,3.81-3.08,6.28,0,1.8.85,3.42,2.54,4.85,1.64,1.49,5.54,2.88,11.71,4.16,15.25,3.29,26.17,6.61,32.77,9.97,6.6,3.36,11.4,7.54,14.4,12.51,3,4.98,4.51,10.55,4.51,16.71,0,7.24-2,13.91-6.01,20.02-4,6.11-9.6,10.74-16.79,13.9-7.19,3.16-16.25,4.74-27.18,4.74-19.2,0-32.5-3.7-39.89-11.09-7.39-7.39-11.58-16.79-12.55-28.19Z"/>
      <path class="cls-1" d="M343.52,121.5c-19.39,0-33.05-3.83-40.6-11.38-7.53-7.53-11.85-17.22-12.84-28.81l-.09-1.02,35.14-2.2.12.92c.69,5.19,2.1,9.17,4.19,11.84,3.42,4.35,8.2,6.47,14.61,6.47,4.71,0,8.36-1.1,10.86-3.26,2.49-2.16,3.7-4.57,3.7-7.37,0-2.65-1.15-4.98-3.52-7.11-2.43-2.18-8.29-4.31-17.41-6.31-15.4-3.46-26.56-8.15-33.17-13.93-6.77-5.87-10.2-13.45-10.2-22.55,0-5.97,1.75-11.69,5.21-16.99,3.45-5.3,8.71-9.52,15.61-12.54,6.85-2.99,16.32-4.51,28.16-4.51,14.57,0,25.86,2.77,33.58,8.23,7.78,5.51,12.46,14.36,13.93,26.3l.13,1.06-34.84,2.04-.15-.88c-.83-4.82-2.56-8.35-5.16-10.49-2.6-2.15-6.29-3.24-10.95-3.24-3.8,0-6.66.79-8.52,2.35-1.83,1.53-2.72,3.34-2.72,5.51,0,1.5.72,2.84,2.19,4.09,1.06.96,3.84,2.4,11.26,3.94,15.26,3.29,26.37,6.67,33.02,10.06,6.74,3.43,11.72,7.77,14.8,12.89,3.08,5.11,4.65,10.91,4.65,17.23,0,7.4-2.08,14.32-6.17,20.57-4.09,6.24-9.89,11.05-17.22,14.27-7.28,3.2-16.57,4.82-27.59,4.82ZM292.17,82.16c1.11,10.65,5.2,19.58,12.17,26.54s20.35,10.8,39.18,10.8c10.74,0,19.75-1.56,26.78-4.65,6.97-3.06,12.48-7.62,16.35-13.53,3.88-5.92,5.84-12.47,5.84-19.47,0-5.95-1.47-11.4-4.36-16.19-2.89-4.79-7.6-8.88-14-12.14-6.49-3.31-17.44-6.64-32.52-9.89-6.39-1.33-10.37-2.77-12.17-4.4-1.9-1.61-2.87-3.5-2.87-5.59,0-2.76,1.16-5.13,3.44-7.04,2.23-1.87,5.53-2.81,9.81-2.81,5.14,0,9.26,1.24,12.23,3.69,2.81,2.32,4.72,5.95,5.69,10.81l30.93-1.81c-1.53-10.82-5.89-18.85-12.96-23.85-7.37-5.22-18.28-7.86-32.42-7.86-11.56,0-20.77,1.46-27.36,4.34-6.54,2.86-11.5,6.83-14.73,11.8-3.24,4.97-4.88,10.32-4.88,15.9,0,8.49,3.2,15.57,9.51,21.04,6.37,5.56,17.23,10.1,32.29,13.49,9.6,2.11,15.59,4.33,18.32,6.78,2.77,2.5,4.18,5.39,4.18,8.6,0,3.37-1.48,6.36-4.39,8.88-2.87,2.49-6.96,3.75-12.17,3.75-6.97,0-12.41-2.43-16.19-7.24-2.18-2.79-3.68-6.78-4.46-11.88l-31.24,1.96Z"/>
    </g>
    <g>
      <path class="cls-1" d="M403.12,5.68h106.04v27.88h-35.58v85.02h-34.89V33.55h-35.58V5.68Z"/>
      <path class="cls-1" d="M474.59,119.57h-36.88V34.55h-35.58V4.68h108.04v29.88h-35.58v85.02ZM439.7,117.57h32.88V32.55h35.58V6.68h-104.04v25.88h35.58v85.02Z"/>
    </g>
    <g>
      <path class="cls-1" d="M524.88,5.68h93.49v24.1h-58.53v17.94h54.29v23.03h-54.29v22.26h60.22v25.57h-95.18V5.68Z"/>
      <path class="cls-1" d="M621.06,119.57h-97.18V4.68h95.49v26.1h-58.53v15.94h54.29v25.03h-54.29v20.26h60.22v27.57ZM525.88,117.57h93.18v-23.57h-60.22v-24.26h54.29v-21.03h-54.29v-19.94h58.53V6.68h-91.49v110.9Z"/>
    </g>
    <g>
      <path class="cls-1" d="M639.08,5.68h32.58l42.51,62.46V5.68h32.88v112.9h-32.88l-42.28-61.99v61.99h-32.81V5.68Z"/>
      <path class="cls-1" d="M748.05,119.57h-34.41l-40.75-59.75v59.75h-34.81V4.68h34.1l40.98,60.21V4.68h34.88v114.9ZM714.7,117.57h31.36V6.68h-30.88v64.71l-44.04-64.71h-31.05v110.9h30.81V53.34l43.81,64.23Z"/>
    </g>
  </g>
  <g>
    <path class="cls-1" d="M63.12,124c-13.93,0-25.51-2.45-34.43-7.28-9.04-4.89-16.13-12.25-21.08-21.89C2.73,85.34.25,74.34.25,62.12c0-12.87,2.71-24.26,8.07-33.86,5.42-9.71,13.45-17.18,23.87-22.2C40.29,2.2,51.18.25,64.59.25s22.56,1.18,29.19,3.6c6.73,2.46,12.4,6.33,16.86,11.52,4.4,5.12,7.73,11.64,9.92,19.39l1.05,3.72-40.45,7.22-.94-2.9c-1.15-3.54-3.01-6.14-5.69-7.97-2.7-1.84-6.3-2.78-10.7-2.78-6.64,0-11.75,2.21-15.63,6.75-3.96,4.64-5.98,12.36-5.98,22.95,0,11.29,2.03,19.32,6.02,23.88,3.93,4.48,9.36,6.66,16.58,6.66,3.52,0,6.92-.51,10.1-1.53,2.83-.9,6.1-2.4,9.73-4.46v-5.11h-23.33v-30.49h60.91v53.48l-1.53,1.04c-10.55,7.19-20.06,12.17-28.28,14.8-8.24,2.64-18.1,3.98-29.29,3.98ZM64.59,7.25c-12.35,0-22.24,1.73-29.38,5.13-9.08,4.38-16.08,10.87-20.78,19.3-4.76,8.54-7.18,18.79-7.18,30.45s2.21,21.02,6.58,29.51c4.3,8.35,10.42,14.72,18.19,18.93,7.88,4.27,18.35,6.43,31.1,6.43,10.47,0,19.61-1.23,27.16-3.65,7.19-2.3,15.57-6.64,24.95-12.89v-42.77h-46.91v16.49h23.33v16.12l-1.71,1.02c-4.78,2.85-9.12,4.9-12.9,6.1-3.87,1.23-7.98,1.86-12.23,1.86-9.23,0-16.58-3.04-21.84-9.05-5.22-5.95-7.76-15.27-7.76-28.49,0-12.48,2.5-21.47,7.66-27.5,5.22-6.1,12.27-9.2,20.95-9.2,5.83,0,10.75,1.34,14.64,4,3.16,2.16,5.6,5.08,7.28,8.72l26.9-4.8c-1.83-5.14-4.29-9.51-7.31-13.03-3.67-4.27-8.36-7.46-13.95-9.51-5.77-2.11-14.79-3.18-26.79-3.18Z"/>
    <path class="cls-1" d="M283.49,122.07h-88.86v-20.25h-27.56l-7.47,20.25h-42.88L168.41,2.18h113.62v31.1h-47.59v10.94h43.28v30.03h-43.28v15.26h49.05v32.57ZM201.62,115.07h74.86v-18.57h-49.05v-29.26h43.28v-16.03h-43.28v-24.94h47.59V9.18h-102.01l-45.65,105.9h27.36l7.47-20.25h39.44v20.25ZM201.62,76.1h-32.54l18.82-51.05h13.72v51.05ZM179.12,69.1h15.5v-37.05h-1.84l-13.66,37.05Z"/>
    <path class="cls-1" d="M343.52,124c-20.36,0-34.21-3.96-42.37-12.11-7.96-7.96-12.52-18.17-13.57-30.36l-.3-3.57,40.02-2.51.43,3.23c.63,4.74,1.87,8.32,3.68,10.63,2.91,3.71,7.05,5.51,12.65,5.51,4.09,0,7.19-.89,9.22-2.65,1.93-1.68,2.84-3.42,2.84-5.48,0-1.93-.86-3.6-2.69-5.25-1.18-1.06-4.87-3.22-16.28-5.73-16.04-3.61-27.25-8.34-34.28-14.49-7.33-6.36-11.05-14.58-11.05-24.43,0-6.46,1.89-12.64,5.61-18.35,3.72-5.72,9.34-10.25,16.7-13.46,7.16-3.13,16.98-4.72,29.16-4.72,15.09,0,26.88,2.92,35.02,8.69,8.38,5.93,13.41,15.37,14.97,28.04l.46,3.7-36.27,2.12c8.06,2.19,14.24,4.41,18.72,6.69,7.16,3.65,12.48,8.3,15.81,13.83,3.32,5.51,5.01,11.74,5.01,18.52,0,7.9-2.21,15.28-6.58,21.94-4.36,6.66-10.52,11.77-18.31,15.19-7.6,3.34-17.22,5.03-28.59,5.03ZM294.99,84.48c1.39,9.01,5.04,16.38,11.12,22.45,6.68,6.68,19.27,10.06,37.42,10.06,10.4,0,19.07-1.49,25.78-4.44,6.52-2.87,11.66-7.11,15.27-12.61,3.61-5.5,5.43-11.59,5.43-18.1,0-5.49-1.35-10.5-4-14.9-2.65-4.39-7.02-8.16-12.99-11.2-6.3-3.21-17.04-6.46-31.92-9.67-6.96-1.45-11.07-2.98-13.27-4.95-3.09-2.64-3.74-5.52-3.74-7.49,0-3.49,1.5-6.58,4.33-8.96,2.69-2.25,6.53-3.4,11.41-3.4,5.74,0,10.39,1.44,13.82,4.27,2.82,2.33,4.85,5.73,6.05,10.12l26.06-1.53c-1.72-8.84-5.49-15.24-11.48-19.48-6.94-4.91-17.36-7.4-30.98-7.4-11.22,0-20.09,1.39-26.36,4.13-6.08,2.66-10.67,6.32-13.64,10.87-3.01,4.62-4.48,9.38-4.48,14.53,0,7.84,2.83,14.1,8.65,19.15,6.06,5.29,16.55,9.64,31.2,12.94,10.16,2.23,16.34,4.57,19.44,7.36,3.32,2.99,5.01,6.51,5.01,10.46s-1.77,7.75-5.25,10.77c-3.34,2.89-7.98,4.36-13.8,4.36-7.77,0-13.88-2.76-18.15-8.19-2.14-2.74-3.64-6.29-4.57-10.79l-26.35,1.65ZM339.82,28.27c-3.19,0-5.52.59-6.92,1.76-1.26,1.06-1.83,2.17-1.83,3.59,0,.29,0,1.08,1.3,2.18l.09.08c.41.37,2.36,1.72,10.07,3.32,4.07.88,7.81,1.75,11.26,2.63l-.33-1.92c-.72-4.21-2.17-7.23-4.29-8.98-2.14-1.77-5.29-2.66-9.36-2.66Z"/>
    <path class="cls-1" d="M477.09,122.07h-41.88V37.05h-35.58V2.18h113.04v34.88h-35.58v85.02ZM442.2,115.07h27.88V30.05h35.58V9.18h-99.04v20.88h35.58v85.02Z"/>
    <path class="cls-1" d="M623.56,122.07h-102.18V2.18h100.49v31.1h-58.53v10.94h54.29v30.03h-54.29v15.26h60.22v32.57ZM528.38,115.07h88.18v-18.57h-60.22v-29.26h54.29v-16.03h-54.29v-24.94h58.53V9.18h-86.49v105.9Z"/>
    <path class="cls-1" d="M750.55,122.07h-38.23l-36.93-54.15v54.15h-39.81V2.18h37.93l37.16,54.6V2.18h39.88v119.9ZM716.02,115.07h27.53V9.18h-25.88v70.32l-47.86-70.32h-27.22v105.9h25.81V45.24l47.63,69.83Z"/>
  </g>
  <g>
    <path class="cls-1" d="M63.12,121.5c-13.51,0-24.69-2.35-33.24-6.97-8.59-4.65-15.33-11.65-20.05-20.83-4.7-9.14-7.08-19.76-7.08-31.57,0-12.43,2.61-23.42,7.75-32.64,5.16-9.25,12.82-16.38,22.77-21.17,7.75-3.69,18.29-5.57,31.31-5.57s22.07,1.16,28.34,3.45c6.32,2.31,11.64,5.94,15.82,10.8,4.16,4.84,7.32,11.04,9.41,18.44l.3,1.06-35.6,6.35-.27-.83c-1.31-4.02-3.55-7.14-6.66-9.26-3.13-2.13-7.2-3.21-12.1-3.21-7.31,0-13.21,2.56-17.53,7.62-4.36,5.1-6.58,13.37-6.58,24.57,0,11.91,2.24,20.5,6.64,25.52,4.37,4.99,10.58,7.51,18.46,7.51,3.78,0,7.44-.55,10.86-1.65,3.33-1.06,7.18-2.87,11.47-5.39v-9.06h-23.33v-25.49h55.91v49.66l-.44.3c-10.35,7.05-19.65,11.93-27.64,14.49-7.99,2.56-17.59,3.86-28.53,3.86ZM64.59,4.75c-12.73,0-22.97,1.81-30.45,5.37-9.57,4.61-16.93,11.45-21.89,20.34-4.97,8.92-7.5,19.58-7.5,31.66s2.31,21.81,6.86,30.65c4.53,8.81,11,15.54,19.22,19.99,8.25,4.47,19.12,6.73,32.29,6.73,10.73,0,20.12-1.27,27.92-3.76,7.69-2.47,16.67-7.15,26.68-13.94v-46.6h-51.91v21.49h23.33v12.2l-.49.29c-4.62,2.75-8.78,4.72-12.38,5.87-3.62,1.16-7.48,1.74-11.47,1.74-8.48,0-15.2-2.76-19.97-8.2-4.74-5.4-7.14-14.43-7.14-26.84,0-11.69,2.37-20.4,7.06-25.87,4.72-5.52,11.13-8.32,19.05-8.32,5.31,0,9.77,1.2,13.23,3.56,3.27,2.23,5.67,5.41,7.15,9.47l31.72-5.66c-2-6.65-4.92-12.23-8.69-16.62-3.95-4.59-8.99-8.03-14.99-10.22-6.05-2.21-15.35-3.33-27.65-3.33Z"/>
    <path class="cls-1" d="M280.99,119.57h-83.86v-20.25h-31.81l-7.47,20.25h-37.33l.6-1.4L170.05,4.68h109.47v26.1h-47.59v15.94h43.28v25.03h-43.28v20.26h49.05v27.57ZM199.12,117.57h79.86v-23.57h-49.05v-24.26h43.28v-21.03h-43.28v-19.94h47.59V6.68h-106.16l-47.81,110.9h32.9l7.47-20.25h35.2v20.25ZM199.12,73.6h-26.45l16.98-46.05h9.48v46.05ZM175.54,71.6h21.58V29.55h-6.08l-15.5,42.05Z"/>
    <path class="cls-1" d="M343.52,121.5c-19.39,0-33.05-3.83-40.6-11.38-7.53-7.53-11.85-17.22-12.84-28.81l-.09-1.02,35.14-2.2.12.92c.69,5.19,2.1,9.17,4.19,11.84,3.42,4.35,8.2,6.47,14.61,6.47,4.71,0,8.36-1.1,10.86-3.26,2.49-2.16,3.7-4.57,3.7-7.37,0-2.65-1.15-4.98-3.52-7.11-2.43-2.18-8.29-4.31-17.41-6.31-15.4-3.46-26.56-8.15-33.17-13.93-6.77-5.87-10.2-13.45-10.2-22.55,0-5.97,1.75-11.69,5.21-16.99,3.45-5.3,8.71-9.52,15.61-12.54,6.85-2.99,16.32-4.51,28.16-4.51,14.57,0,25.86,2.77,33.58,8.23,7.78,5.51,12.46,14.36,13.93,26.3l.13,1.06-34.84,2.04-.15-.88c-.83-4.82-2.56-8.35-5.16-10.49-2.6-2.15-6.29-3.24-10.95-3.24-3.8,0-6.66.79-8.52,2.35-1.83,1.53-2.72,3.34-2.72,5.51,0,1.5.72,2.84,2.19,4.09,1.06.96,3.84,2.4,11.26,3.94,15.26,3.29,26.37,6.67,33.02,10.06,6.74,3.43,11.72,7.77,14.8,12.89,3.08,5.11,4.65,10.91,4.65,17.23,0,7.4-2.08,14.32-6.17,20.57-4.09,6.24-9.89,11.05-17.22,14.27-7.28,3.2-16.57,4.82-27.59,4.82ZM292.17,82.16c1.11,10.65,5.2,19.58,12.17,26.54s20.35,10.8,39.18,10.8c10.74,0,19.75-1.56,26.78-4.65,6.97-3.06,12.48-7.62,16.35-13.53,3.88-5.92,5.84-12.47,5.84-19.47,0-5.95-1.47-11.4-4.36-16.19-2.89-4.79-7.6-8.88-14-12.14-6.49-3.31-17.44-6.64-32.52-9.89-6.39-1.33-10.37-2.77-12.17-4.4-1.9-1.61-2.87-3.5-2.87-5.59,0-2.76,1.16-5.13,3.44-7.04,2.23-1.87,5.53-2.81,9.81-2.81,5.14,0,9.26,1.24,12.23,3.69,2.81,2.32,4.72,5.95,5.69,10.81l30.93-1.81c-1.53-10.82-5.89-18.85-12.96-23.85-7.37-5.22-18.28-7.86-32.42-7.86-11.56,0-20.77,1.46-27.36,4.34-6.54,2.86-11.5,6.83-14.73,11.8-3.24,4.97-4.88,10.32-4.88,15.9,0,8.49,3.2,15.57,9.51,21.04,6.37,5.56,17.23,10.1,32.29,13.49,9.6,2.11,15.59,4.33,18.32,6.78,2.77,2.5,4.18,5.39,4.18,8.6,0,3.37-1.48,6.36-4.39,8.88-2.87,2.49-6.96,3.75-12.17,3.75-6.97,0-12.41-2.43-16.19-7.24-2.18-2.79-3.68-6.78-4.46-11.88l-31.24,1.96Z"/>
    <path class="cls-1" d="M474.59,119.57h-36.88V34.55h-35.58V4.68h108.04v29.88h-35.58v85.02ZM439.7,117.57h32.88V32.55h35.58V6.68h-104.04v25.88h35.58v85.02Z"/>
    <path class="cls-1" d="M621.06,119.57h-97.18V4.68h95.49v26.1h-58.53v15.94h54.29v25.03h-54.29v20.26h60.22v27.57ZM525.88,117.57h93.18v-23.57h-60.22v-24.26h54.29v-21.03h-54.29v-19.94h58.53V6.68h-91.49v110.9Z"/>
    <path class="cls-1" d="M748.05,119.57h-34.41l-40.75-59.75v59.75h-34.81V4.68h34.1l40.98,60.21V4.68h34.88v114.9ZM714.7,117.57h31.36V6.68h-30.88v64.71l-44.04-64.71h-31.05v110.9h30.81V53.34l43.81,64.23Z"/>
  </g>
</svg>